<?xml version="1.0" encoding="UTF-8" standalone="no"?>
<!-- Created with Inkscape (http://www.inkscape.org/) -->

<svg
   width="163.55646mm"
   height="93.899055mm"
   viewBox="0 0 163.55645 93.899055"
   version="1.1"
   id="svg5"
   xml:space="preserve"
   inkscape:version="1.2.1 (9c6d41e410, 2022-07-14)"
   sodipodi:docname="logo.svg"
   xmlns:inkscape="http://www.inkscape.org/namespaces/inkscape"
   xmlns:sodipodi="http://sodipodi.sourceforge.net/DTD/sodipodi-0.dtd"
   xmlns="http://www.w3.org/2000/svg"
   xmlns:svg="http://www.w3.org/2000/svg"><sodipodi:namedview
     id="namedview7"
     pagecolor="#505050"
     bordercolor="#eeeeee"
     borderopacity="1"
     inkscape:showpageshadow="0"
     inkscape:pageopacity="0"
     inkscape:pagecheckerboard="0"
     inkscape:deskcolor="#505050"
     inkscape:document-units="mm"
     showgrid="false"
     inkscape:zoom="0.74564394"
     inkscape:cx="236.70815"
     inkscape:cy="646.42113"
     inkscape:window-width="1920"
     inkscape:window-height="1017"
     inkscape:window-x="-8"
     inkscape:window-y="-8"
     inkscape:window-maximized="1"
     inkscape:current-layer="g5123" /><defs
     id="defs2" /><g
     inkscape:label="Warstwa 1"
     inkscape:groupmode="layer"
     id="layer1"
     transform="translate(-32.792045,-91.932493)"><g
       id="g5123"
       inkscape:export-filename="svgs\logo2.svg"
       inkscape:export-xdpi="96"
       inkscape:export-ydpi="96"
       style="fill:#333333;fill-opacity:1"><path
         style="color:#000000;fill:#333333;fill-opacity:1;stroke-linecap:square;stroke-miterlimit:10.4;-inkscape-stroke:none"
         d="m 82.589844,91.980469 c -0.5417,0.07941 -1.084237,0.253439 -1.619141,0.49414 -2.139615,0.962807 -4.374296,3.009062 -6.851562,5.857422 -1.91899,2.206459 -4.032371,5.252479 -6.142579,8.318359 -4.805025,0.95658 -9.894864,1.7476 -14.314453,2.39063 -4.958079,0.72137 -8.959624,1.27527 -11.169922,2.16992 -4.085121,1.6535 -5.617488,4.77483 -5.919921,7.32031 -0.302434,2.54548 0.458984,4.64063 0.458984,4.64063 l 0.398437,1.11328 2.226563,-0.79493 -0.398438,-1.11328 c 0,0 -0.567714,-1.63205 -0.33789,-3.5664 0.229824,-1.93436 1.092503,-4.04558 4.458984,-5.40821 1.515506,-0.61342 5.675327,-1.30133 10.625,-2.02148 3.6637,-0.53305 7.892936,-1.26283 12.001953,-2.00586 -2.711406,4.15117 -5.495745,8.79269 -8.246093,13.73242 -5.622856,10.09887 -11.06661,21.30307 -15.248047,31.38477 -0.109416,0.26381 -0.163801,0.47027 -0.271485,0.73242 -2.923618,5.66955 -5.773591,11.88699 -7.644531,17.35937 -0.915995,2.67924 -1.421303,5.10695 -1.648437,7.09571 -0.227135,1.98876 -0.203352,3.4916 0.06055,4.56445 0.06598,0.26821 0.144358,0.5138 0.289063,0.77148 0.144705,0.25769 0.373591,0.59255 0.876953,0.75782 0.503362,0.16526 1.093509,-0.0506 1.375,-0.28907 0.281492,-0.23845 0.422391,-0.47833 0.552734,-0.73632 0.521375,-1.03198 0.83417,-2.60153 1.091797,-5.26368 0.48321,-4.99316 3.209247,-13.45128 7.070313,-22.92187 3.41359,-6.62529 6.917187,-12.49984 8.990234,-15.03125 2.158041,-2.6352 3.738178,-4.00672 4.773438,-4.58398 1.035259,-0.57727 1.357126,-0.46838 1.75,-0.26954 0.392873,0.19885 0.851208,0.72981 1.476562,1.31446 0.312678,0.29232 0.684963,0.60766 1.21875,0.80273 0.533787,0.19508 1.227853,0.19337 1.826172,-0.0527 0.604353,-0.24859 1.000191,-0.28611 1.230469,-0.25977 0.230278,0.0264 0.332679,0.0843 0.478515,0.22852 0.291674,0.28837 0.60803,1.07725 0.835938,1.95312 0.113954,0.43794 0.216914,0.88855 0.355469,1.32422 0.138554,0.43568 0.26528,0.88214 0.736328,1.32617 0.235524,0.22202 0.604074,0.42094 0.996094,0.45899 0.392019,0.038 0.750314,-0.0676 1.037109,-0.21289 0.573591,-0.29067 0.990562,-0.7265 1.511719,-1.35938 0.963141,-1.16962 1.125369,-1.22245 1.658203,-1.74805 -0.01518,0.10741 -0.03336,0.17968 -0.04492,0.28516 -0.04399,0.40127 -0.149416,0.76025 0.132812,1.38477 0.141115,0.31226 0.542369,0.72319 1.00586,0.82031 0.463491,0.0971 0.805396,-0.0317 1.066406,-0.1582 1.416807,-0.68694 2.358724,-1.95582 3.121094,-2.86914 -0.0042,0.26897 -0.0055,0.51542 -0.002,0.7832 0.0036,0.27045 0.0083,0.52321 0.07227,0.82812 0.03199,0.15246 0.07229,0.3237 0.207032,0.54883 0.134744,0.22513 0.446248,0.54301 0.875,0.63281 0.428752,0.0898 0.785055,-0.0539 0.996093,-0.17968 0.211038,-0.12575 0.340184,-0.25536 0.464844,-0.39063 0.249321,-0.27053 0.466271,-0.58507 0.734375,-1.01953 0.266015,-0.43108 0.425808,-0.60833 0.619141,-0.86328 0.06104,0.38777 0.106932,0.76304 0.224609,1.19531 0.04442,0.16318 0.09589,0.33012 0.203125,0.53125 0.107232,0.20113 0.282634,0.48751 0.699219,0.67383 0.416585,0.18632 0.966808,0.0889 1.253906,-0.0762 0.287098,-0.16504 0.436483,-0.34299 0.580078,-0.52735 0.590428,-0.75801 0.976474,-1.22057 1.259766,-1.52734 0.196069,0.26272 0.407317,0.56556 0.777344,0.99023 0.813636,0.93381 1.9941,0.99562 3.029296,0.86329 0.0249,-0.003 0.04736,-0.02 0.07227,-0.0234 0.269417,0.42961 0.564307,0.80743 0.917969,1.08398 0.788765,0.6168 1.76726,0.73332 2.515625,0.58203 1.496729,-0.30256 2.427734,-1.36914 2.427734,-1.36914 L 97.173828,141.80859 95.484375,140.1543 94.65625,141 c 0,0 -0.702616,0.6039 -1.203125,0.70508 -0.250254,0.0506 -0.361225,0.0529 -0.59375,-0.12891 -0.002,-0.002 -0.0058,-0.014 -0.0078,-0.0156 0.17822,-0.0834 0.386345,-0.0947 0.556641,-0.1875 0.915767,-0.49881 1.725493,-1.05492 2.183594,-2 0.22905,-0.47255 0.326338,-1.15228 0.06055,-1.74219 -0.265792,-0.58991 -0.772634,-0.96451 -1.330078,-1.21289 l -0.119141,-0.0527 -0.128906,-0.0254 c 0,0 -1.160027,-0.28375 -2.417969,0.0332 -0.628971,0.15848 -1.374739,0.52204 -1.824219,1.27539 -0.384795,0.64493 -0.414885,1.46845 -0.242187,2.3457 -0.123707,-0.0277 -0.427902,-0.0382 -0.421875,-0.0312 -0.371735,-0.42663 -0.625267,-0.79674 -0.898438,-1.14648 -0.27317,-0.34974 -0.631035,-0.88134 -1.460937,-0.95313 -0.829903,-0.0718 -1.326047,0.40292 -1.757813,0.8457 -0.123864,0.12703 -0.315289,0.38855 -0.449219,0.54297 -0.0127,-0.0593 -0.01353,-0.0835 -0.02734,-0.14258 -0.08327,-0.35632 -0.175685,-0.71926 -0.4375,-1.11914 -0.261815,-0.39987 -0.956111,-0.87316 -1.625,-0.77929 -0.668889,0.0939 -1.063527,0.45664 -1.464844,0.88672 -0.09794,0.10495 -0.216683,0.31116 -0.316406,0.43359 -0.01558,-0.14213 -0.01418,-0.27982 -0.04687,-0.42773 -0.07092,-0.3209 -0.164524,-0.70145 -0.56836,-1.07422 -0.345884,-0.31928 -0.971425,-0.47109 -1.396484,-0.37891 -0.425059,0.0922 -0.684629,0.28403 -0.912109,0.46875 -0.454961,0.36944 -0.805159,0.80633 -1.195313,1.27344 -0.298689,0.3576 -0.581075,0.5299 -0.896484,0.86719 0.02653,-0.18233 0.06096,-0.31208 0.07617,-0.49219 0.03444,-0.40783 0.158353,-0.81203 -0.259766,-1.46485 -0.20906,-0.3264 -0.713397,-0.63878 -1.138672,-0.66015 -0.425274,-0.0214 -0.713587,0.10899 -0.964844,0.24414 -1.005026,0.54059 -1.93614,1.58174 -3.771484,3.81055 -0.158507,0.19248 -0.164651,0.16496 -0.283203,0.28125 -0.07496,-0.26968 -0.14872,-0.55095 -0.242188,-0.91016 -0.247117,-0.9497 -0.534423,-2.12304 -1.460937,-3.03906 -0.463257,-0.45801 -1.125141,-0.81115 -1.871094,-0.89649 -0.745953,-0.0853 -1.540478,0.0682 -2.400391,0.42188 -0.130645,0.0537 -0.06716,0.0364 -0.113281,0.0195 -0.04612,-0.0169 -0.20248,-0.11091 -0.416015,-0.31055 -0.427072,-0.39927 -1.008444,-1.18061 -2.025391,-1.69531 -1.016947,-0.5147 -2.473896,-0.52103 -3.96875,0.3125 -1.380545,0.76979 -2.983825,2.27065 -4.990234,4.64844 2.523483,-5.17962 5.208657,-10.36336 7.941406,-15.27149 3.197079,-5.74208 6.393116,-10.86274 9.484375,-15.43359 0.305854,-0.0632 0.604842,-0.087 0.908203,-0.15234 5.415543,-1.16608 10.385362,-2.63631 13.716797,-4.86329 1.665717,-1.11348 2.960349,-2.45379 3.535156,-4.130856 0.574807,-1.677062 0.32592,-3.595564 -0.744141,-5.511718 -0.58743,-1.051911 -1.467855,-1.834608 -2.52539,-2.111329 -0.528768,-0.13836 -1.069629,-0.153632 -1.611328,-0.07422 z m 1.011718,2.363281 c 0.36641,0.09588 0.692397,0.318861 1.058594,0.974609 0.837196,1.499164 0.916309,2.595665 0.574219,3.59375 -0.34209,0.998085 -1.210201,1.991771 -2.613281,2.929691 -2.472584,1.65285 -6.600787,2.96627 -11.144532,4.04687 1.497904,-2.07461 3.068667,-4.44125 4.427735,-6.003904 2.371267,-2.726484 4.525077,-4.571554 6.037109,-5.251954 0.756016,-0.340199 1.293747,-0.384939 1.660156,-0.289062 z m 9.466797,44.31836 c -0.203151,0.20209 -0.344937,0.39179 -0.791015,0.63476 -0.117992,0.0643 -0.254275,0.0701 -0.38086,0.12891 -0.01271,-0.22057 -0.05528,-0.53268 -0.03516,-0.56641 0.03247,-0.0544 0.112812,-0.12828 0.371094,-0.19335 0.314045,-0.0791 0.539001,-0.0272 0.835937,-0.004 z"
         id="path3088" /><path
         style="color:#000000;fill:#333333;fill-opacity:1;stroke-linecap:round;stroke-miterlimit:10.4;-inkscape-stroke:none"
         d="m 59.140625,134.83008 c -1.897972,0 -3.333984,1.70792 -3.333984,3.65625 0,1.94833 1.436012,3.65625 3.333984,3.65625 1.897972,0 3.333984,-1.70792 3.333984,-3.65625 0,-1.94833 -1.436012,-3.65625 -3.333984,-3.65625 z m 0,1.86719 c 0.753841,0 1.466797,0.73074 1.466797,1.78906 0,1.05832 -0.712956,1.78906 -1.466797,1.78906 -0.753841,0 -1.466797,-0.73074 -1.466797,-1.78906 0,-1.05832 0.712956,-1.78906 1.466797,-1.78906 z"
         id="path3461" /><path
         style="color:#000000;fill:#333333;fill-opacity:1;stroke-linecap:round;stroke-miterlimit:10.4;-inkscape-stroke:none"
         d="m 65.236328,136.75195 c -1.754924,0 -3.021484,1.64228 -3.021484,3.4668 0,1.82452 1.26656,3.46875 3.021484,3.46875 1.754925,0 3.021484,-1.64423 3.021484,-3.46875 0,-1.82452 -1.266559,-3.4668 -3.021484,-3.4668 z m 0,1.73047 c 0.626211,0 1.291016,0.6863 1.291016,1.73633 0,1.05003 -0.664805,1.73828 -1.291016,1.73828 -0.626211,0 -1.291015,-0.68825 -1.291016,-1.73828 0,-1.05003 0.664805,-1.73633 1.291016,-1.73633 z"
         id="path3461-5" /></g><g
       id="g5127"
       transform="translate(3.512724)"
       style="fill:#333333;fill-opacity:1"><path
         style="color:#000000;fill:#333333;fill-opacity:1;stroke-linecap:square;-inkscape-stroke:none"
         d="m 126.16602,106.86523 c -5.25308,-0.0955 -9.76292,2.33909 -13.45508,5.89258 -2.96677,2.85534 -5.33384,6.48513 -7.40039,10.20508 0.98327,-2.87154 1.98278,-5.45811 2.88281,-7.0625 l -2.00977,-1.24219 c 0,0 -0.052,0.0849 -0.0527,0.0859 -0.0562,0.0828 -2.34346,3.44378 -4.32813,7.01172 -1.00447,1.8058 -1.922033,3.62916 -2.42773,5.17383 -0.252848,0.77233 -0.422718,1.46462 -0.371094,2.19531 0.02581,0.36534 0.114311,0.76447 0.371094,1.13672 0.23184,0.33609 0.63082,0.56249 1.01953,0.68555 -0.13334,0.47816 -0.29906,0.95703 -0.427733,1.42773 -1.759029,6.43492 -3.004615,11.94957 -3.00586,11.95508 0,0 -0.002,0.006 -0.002,0.006 l 2.306641,0.52734 c 0,0 1.531462,-6.26373 4.562502,-13.51367 1.0507,0.0674 2.17966,0.13372 3.57226,0.19531 3.39737,0.15025 7.63166,0.28355 11.77149,0.39453 5.19926,0.13939 7.12267,0.16431 10.16015,0.22266 -0.29897,1.04128 -0.4771,2.0243 -0.81055,3.07226 -2.35541,7.40273 -5.19878,14.22568 -7.51367,19.42383 0.27747,-3.39893 0.25139,-7.05901 -1.51367,-9.66015 l -0.66406,-0.97852 -1.95703,1.32813 0.66406,0.97851 c 1.32923,1.95887 1.47789,6.08993 1.06836,9.66797 -0.40953,3.57804 -1.22852,6.5625 -1.22852,6.5625 l 2.19727,0.8418 c 0,0 6.81542,-13.66347 11.20117,-27.44727 0.40295,-1.2664 0.6363,-2.47624 0.99219,-3.73437 0.69347,0.0126 3.58398,0.0781 3.58398,0.0781 l 1.18164,0.0195 0.0391,-2.36328 -1.18165,-0.0215 c 0,0 -2.50397,-0.0575 -3,-0.0664 1.21357,-4.74011 2.12394,-9.33737 1.97657,-13.14453 -0.1052,-2.71758 -0.66113,-5.10921 -1.9961,-6.91602 -1.33497,-1.80681 -3.48819,-2.8881 -6.20507,-2.9375 z m -0.043,2.36524 c 2.16214,0.0393 3.42966,0.73871 4.3457,1.97851 0.91604,1.23981 1.44076,3.1629 1.53516,5.60157 0.13719,3.54418 -0.79459,8.18128 -2.04883,13 -2.95863,-0.056 -5.23656,-0.0874 -10.7207,-0.23438 -4.13235,-0.11078 -8.35819,-0.24343 -11.73047,-0.39258 -1.04405,-0.0462 -1.80738,-0.0956 -2.65821,-0.14453 0.3564,-0.78418 0.63085,-1.53326 1.02344,-2.32226 2.24654,-4.51489 5.08891,-8.98981 8.48242,-12.25586 3.39351,-3.26606 7.2665,-5.31238 11.77149,-5.23047 z"
         id="path3653" /><path
         style="color:#000000;fill:#333333;fill-opacity:1;stroke-linecap:square;-inkscape-stroke:none"
         d="m 145.12891,128.73437 c 0,0 -1.40896,2.90612 -3.0293,5.81836 -0.42028,0.75537 -0.82915,1.3615 -1.25391,2.0625 v 0.002 c -0.39374,0.64976 -0.80628,1.40108 -1.16211,1.91211 -0.36996,0.53134 -0.71159,0.96393 -0.96289,1.22461 -0.10092,0.10469 -0.17653,0.14196 -0.23242,0.17382 -0.002,-0.0718 -0.006,-0.15625 -0.006,-0.15625 l -2.22265,-0.75 -0.60938,1.24805 c -0.37951,-0.99917 -1.24329,-1.93748 -2.49023,-2.23437 -2.20686,-0.52544 -3.96458,0.1953 -5.00196,1.06445 -1.03737,0.86915 -1.49609,1.91211 -1.49609,1.91211 l -0.48047,1.08008 2.16016,0.96093 0.48047,-1.08007 c 0,0 0.25171,-0.55471 0.85546,-1.06055 0.60376,-0.50585 1.4166,-0.93782 2.93555,-0.57617 0.57022,0.13576 0.70402,0.32364 0.86524,0.79687 0.16121,0.47324 0.18616,1.24548 0.0781,2.04102 -0.21607,1.59108 -0.87305,3.18164 -0.87305,3.18164 l 2.1543,0.97656 2.5918,-5.31445 c 0.43463,0.20154 0.90728,0.34911 1.42968,0.29687 0.21081,-0.0211 0.3226,-0.11104 0.47852,-0.16992 l -0.31836,1.16602 2.23242,0.76757 2.17774,-5.18945 48.22461,-1.71484 1.18164,-0.043 -0.084,-2.36328 -1.18164,0.043 -47.13281,1.67773 2.82031,-6.72266 0.0254,-0.0586 z m -6.50391,11.22657 c -0.16487,0.0165 -0.12779,0.0103 -0.13477,0.008 -4e-5,-8.3e-4 5e-5,-0.001 0,-0.002 0.01,0.003 -3.6e-4,0.008 0.13477,-0.006 z"
         id="path3655" /></g><path
       style="color:#000000;fill:#333333;fill-opacity:1;-inkscape-stroke:none"
       d="m 49.302734,123.10156 c 0,0 -0.182065,0.68498 0.04883,1.38477 0.230894,0.69978 0.855562,1.46304 1.927735,1.98437 2.144346,1.04267 6.059358,1.48567 14.376953,0.2793 l -0.337891,-2.33984 c -8.11692,1.17726 -11.729623,0.55319 -13.003906,-0.0664 -0.637141,-0.3098 -0.692861,-0.52707 -0.716797,-0.59961 -0.02394,-0.0725 -0.0332,0.0488 -0.0332,0.0488 z"
       id="path3659" /></g></svg>
